<?xml version="1.0" standalone="no"?>
<!DOCTYPE svg PUBLIC "-//W3C//DTD SVG 20010904//EN"
 "http://www.w3.org/TR/2001/REC-SVG-20010904/DTD/svg10.dtd">
<svg version="1.0" xmlns="http://www.w3.org/2000/svg"
 width="470.000000pt" height="510.000000pt" viewBox="0 0 470.000000 510.000000"
 preserveAspectRatio="xMidYMid meet">
<metadata>
Created by potrace 1.14, written by Peter Selinger 2001-2017
</metadata>
<g transform="translate(0.000000,510.000000) scale(0.100000,-0.100000)"
fill="#000000" stroke="none">
<path d="M1425 5045 c-27 -8 -60 -19 -72 -26 -28 -15 -55 -79 -41 -96 23 -28
-5 -28 -62 0 -99 49 -191 38 -222 -26 -18 -38 -15 -48 58 -167 l52 -86 -102
-33 c-318 -103 -624 -264 -836 -440 -106 -88 -114 -110 -113 -286 1 -296 88
-523 237 -623 70 -48 116 -65 241 -93 186 -40 207 -42 341 -19 68 12 160 32
204 44 105 31 108 27 76 -95 -14 -52 -39 -160 -55 -240 -26 -126 -40 -167
-106 -313 -42 -92 -73 -171 -70 -176 4 -7 13 -7 24 0 28 15 31 2 11 -46 -23
-53 -17 -78 15 -70 32 8 37 -13 21 -89 -7 -35 -12 -66 -11 -67 2 -2 8 -61 15
-133 14 -160 39 -281 90 -428 52 -150 76 -317 60 -425 -17 -124 -40 -212 -75
-289 l-33 -71 -78 -7 c-143 -13 -187 -48 -188 -146 0 -60 29 -100 97 -133 109
-54 212 -54 351 -2 45 17 61 28 61 42 1 27 14 44 34 44 9 0 59 38 111 84 52
46 98 82 102 80 15 -9 -93 -251 -116 -260 -9 -3 -30 -1 -47 5 -23 8 -44 8 -73
1 -66 -17 -84 -31 -107 -77 -45 -93 -20 -227 49 -262 66 -33 130 -41 202 -26
115 25 177 51 254 109 36 28 50 34 68 27 55 -20 96 -8 174 54 74 59 184 180
239 262 15 24 31 43 34 43 4 0 14 -9 24 -20 14 -16 20 -18 35 -9 30 19 80 100
92 150 8 32 19 50 35 57 14 6 26 23 30 41 4 17 14 37 24 43 25 19 29 28 41
101 8 51 7 90 -5 171 -13 98 -13 111 5 208 11 57 20 104 20 104 0 8 240 55
250 49 5 -3 13 -28 20 -55 24 -98 110 -195 192 -215 15 -4 34 -18 43 -31 17
-27 25 -12 -130 -238 -148 -215 -135 -290 53 -289 59 0 78 4 102 21 16 12 33
22 38 22 5 0 41 22 79 50 81 56 162 165 181 243 11 43 15 47 50 53 60 10 164
42 204 63 l38 19 6 -32 c7 -41 -26 -184 -66 -280 -63 -150 -183 -316 -296
-407 -127 -104 -147 -247 -41 -295 81 -37 197 -16 372 66 93 44 100 50 220
194 254 304 348 473 385 696 16 95 17 113 4 188 -34 192 -95 288 -243 379 -2
1 24 38 56 81 61 80 112 187 134 278 15 62 16 287 2 336 -14 47 3 67 42 50 39
-18 116 14 134 55 10 22 26 36 57 48 44 17 69 48 92 113 10 28 9 40 -7 71 -18
38 -18 38 6 67 13 16 30 44 38 62 22 50 0 88 -55 97 -22 4 -38 11 -35 15 3 5
10 33 15 62 11 60 -6 196 -34 262 l-16 39 -23 -20 c-140 -124 -219 -200 -307
-299 -149 -166 -150 -168 -168 -150 -12 12 -13 18 -4 29 15 18 4 27 -63 52
-49 18 -49 19 -22 28 15 5 27 15 27 22 0 15 -34 27 -125 46 l-60 13 53 14 c57
16 66 28 27 38 -29 7 -301 -12 -440 -31 -55 -7 -149 -16 -210 -20 -183 -11
-372 -35 -523 -66 -183 -38 -492 -132 -529 -161 -17 -14 -36 1 -28 21 22 53
46 274 56 516 6 149 14 279 19 290 39 89 42 171 10 210 -8 9 -8 20 -1 32 18
35 -72 233 -106 233 -19 0 -34 45 -38 113 -5 74 -60 236 -124 367 -32 64 -47
107 -42 114 5 6 14 29 20 51 23 87 -39 217 -131 272 -43 26 -193 76 -217 72
-3 0 -28 -7 -56 -14z"/>
</g>
</svg>
