<?xml version="1.0" standalone="no"?>
<!DOCTYPE svg PUBLIC "-//W3C//DTD SVG 20010904//EN"
 "http://www.w3.org/TR/2001/REC-SVG-20010904/DTD/svg10.dtd">
<svg version="1.0" xmlns="http://www.w3.org/2000/svg"
 width="470.000000pt" height="510.000000pt" viewBox="0 0 470.000000 510.000000"
 preserveAspectRatio="xMidYMid meet">

<g transform="translate(0.000000,510.000000) scale(0.100000,-0.100000)"
fill="#000000" stroke="none">
<path d="M1407 5046 c-66 -18 -99 -53 -101 -104 l-1 -40 -50 27 c-40 21 -64
26 -117 26 -60 0 -71 -3 -95 -27 -42 -43 -37 -79 30 -189 36 -60 53 -95 45
-97 -131 -33 -401 -142 -556 -224 -116 -61 -287 -177 -378 -257 -104 -90 -109
-106 -101 -309 11 -326 113 -540 299 -631 66 -32 249 -78 354 -88 75 -7 192 9
343 48 63 16 116 27 119 24 3 -3 -11 -76 -32 -163 -20 -86 -43 -193 -51 -237
-9 -44 -21 -93 -29 -110 -108 -240 -136 -306 -136 -324 0 -22 14 -28 25 -11
17 27 21 4 7 -39 -13 -41 -13 -53 -2 -66 7 -9 21 -13 31 -10 21 7 22 1 10 -83
-10 -71 5 -274 30 -397 11 -55 40 -158 64 -230 87 -260 82 -495 -15 -713 l-32
-70 -81 -4 c-94 -5 -139 -24 -167 -71 -24 -39 -26 -109 -4 -147 40 -67 164
-115 278 -108 87 6 204 46 242 83 23 21 24 25 7 16 -26 -13 -33 -14 -33 -3 0
4 15 14 34 20 19 7 75 51 125 98 50 47 91 82 91 77 0 -12 -39 -110 -74 -189
l-27 -61 -84 1 c-70 1 -88 -2 -112 -20 -44 -33 -65 -79 -70 -152 -13 -198 157
-262 420 -160 42 17 77 34 77 39 0 16 114 69 134 63 20 -7 20 -7 -2 -24 -26
-22 -28 -30 -6 -30 51 0 285 213 378 343 46 65 49 67 63 47 21 -30 37 -25 80
28 41 48 63 97 63 138 0 16 7 24 23 26 16 2 26 15 37 46 8 23 20 42 27 42 34
0 50 136 34 279 -11 87 -10 116 4 199 9 53 20 100 23 103 10 8 140 37 200 45
52 6 52 6 52 -23 0 -35 30 -101 67 -150 31 -40 107 -93 135 -93 10 0 25 -11
34 -25 15 -23 15 -27 -14 -72 -16 -27 -57 -86 -91 -133 -123 -170 -149 -259
-88 -304 24 -18 43 -21 124 -21 72 0 97 4 106 15 7 8 35 26 62 40 101 51 225
201 240 292 6 33 10 38 33 38 34 0 145 31 205 58 l47 21 0 -40 c0 -63 -29
-176 -70 -271 -59 -139 -153 -269 -274 -384 -59 -55 -108 -99 -109 -98 -1 2
-3 -5 -4 -14 -1 -9 -5 -40 -9 -68 -12 -95 49 -154 158 -154 64 0 106 11 223
58 146 58 139 51 363 321 144 173 253 366 293 518 65 249 -12 514 -181 624
l-50 33 29 30 c79 85 151 230 172 350 11 68 8 287 -6 333 -6 20 -4 21 52 20
73 -1 121 22 129 62 5 22 13 30 36 35 41 8 95 67 109 118 9 34 8 49 -5 82 -16
39 -15 41 8 65 68 71 52 161 -27 161 -24 0 -25 1 -15 43 21 90 -17 318 -54
325 -16 3 -288 -259 -416 -401 -42 -47 -65 -65 -76 -61 -13 5 -14 9 -5 20 19
23 3 41 -53 60 -47 16 -50 18 -28 24 14 3 26 13 28 22 4 18 -29 33 -118 52
-36 8 -58 14 -50 15 69 5 120 45 68 53 -42 6 -298 -11 -416 -27 -64 -9 -184
-21 -265 -26 -350 -21 -675 -87 -962 -194 -49 -19 -90 -33 -91 -32 -1 1 4 36
12 77 28 165 44 353 44 535 1 151 4 194 15 209 8 11 15 32 15 47 0 15 5 31 10
34 14 8 13 81 -1 107 -6 12 -13 44 -14 72 -2 54 -34 129 -88 204 -30 42 -55
57 -43 26 5 -14 4 -15 -9 -4 -17 14 -21 45 -4 34 16 -9 1 94 -27 194 -25 87
-128 322 -146 333 -7 4 -7 9 1 13 18 12 33 87 26 137 -9 62 -59 145 -112 185
-86 66 -224 96 -316 70z m-336 -636 c50 -27 71 -143 45 -252 -25 -105 -71
-168 -125 -168 -30 0 -25 13 12 30 62 29 101 142 77 229 -13 50 -58 101 -90
101 -27 0 -15 23 26 51 34 22 30 22 55 9z m2329 -1442 c18 -46 25 -305 11
-397 -11 -74 -35 -171 -72 -301 -15 -52 -25 -69 -51 -85 -43 -27 -142 -145
-184 -222 -31 -54 -41 -63 -81 -77 -59 -20 -206 -21 -307 -1 -145 27 -271 118
-300 214 -26 87 -39 247 -33 386 7 141 30 242 75 337 l27 56 100 22 c127 27
351 57 502 65 65 4 143 13 173 20 30 7 71 14 92 14 32 1 37 -3 48 -31z m-145
-882 c-32 -47 -74 -100 -93 -118 l-35 -33 24 43 c29 54 149 206 156 198 3 -3
-20 -43 -52 -90z"/>
<path d="M2699 2161 c25 -22 46 -27 56 -12 5 9 -9 15 -60 27 -18 5 -18 3 4
-15z"/>
</g>
</svg>
