<?xml version="1.0" standalone="no"?>
<!DOCTYPE svg PUBLIC "-//W3C//DTD SVG 20010904//EN"
 "http://www.w3.org/TR/2001/REC-SVG-20010904/DTD/svg10.dtd">
<svg version="1.0" xmlns="http://www.w3.org/2000/svg"
 width="470.000000pt" height="510.000000pt" viewBox="0 0 470.000000 510.000000"
 preserveAspectRatio="xMidYMid meet">
<metadata>
Created by potrace 1.14, written by Peter Selinger 2001-2017
</metadata>
<g transform="translate(0.000000,510.000000) scale(0.100000,-0.100000)"
fill="#000000" stroke="none">
<path d="M1407 5046 c-66 -18 -99 -53 -101 -104 l-1 -40 -50 27 c-40 21 -64
26 -117 26 -60 0 -71 -3 -95 -27 -42 -43 -37 -79 30 -189 36 -60 53 -95 45
-97 -131 -33 -401 -142 -556 -224 -116 -61 -287 -177 -378 -257 -104 -90 -109
-106 -101 -309 11 -326 113 -540 299 -631 66 -32 249 -78 354 -88 75 -7 192 9
343 48 63 16 116 27 119 24 3 -3 -11 -76 -32 -163 -20 -86 -43 -193 -51 -237
-9 -44 -21 -93 -29 -110 -144 -318 -147 -327 -127 -340 5 -3 12 -1 16 5 17 27
21 4 7 -39 -13 -41 -13 -53 -2 -66 7 -9 21 -13 31 -10 21 7 22 1 10 -83 -10
-71 5 -274 30 -397 11 -55 40 -158 64 -230 87 -260 82 -495 -15 -713 l-32 -70
-81 -4 c-131 -7 -187 -52 -187 -150 0 -41 5 -54 35 -87 55 -60 122 -85 230
-86 94 0 221 32 246 61 20 24 6 24 -74 -1 -43 -14 -89 -25 -102 -25 -22 0 -25
4 -25 38 0 43 21 138 37 166 10 18 15 15 70 -37 56 -53 83 -69 83 -48 0 15
-125 127 -158 140 -38 16 -38 20 -12 71 11 21 32 78 46 127 24 77 27 106 28
233 1 194 -8 263 -54 405 -35 106 -80 292 -80 331 0 8 6 14 13 14 8 0 18 -23
25 -58 13 -62 35 -102 57 -102 8 0 18 -20 25 -52 6 -29 20 -83 31 -120 16 -54
24 -69 43 -74 13 -3 28 -16 35 -30 7 -16 19 -24 35 -24 14 0 28 -5 32 -11 3
-6 20 -9 36 -7 16 3 31 1 34 -4 7 -11 51 -10 59 1 9 15 68 -14 77 -38 4 -12
17 -72 29 -134 17 -89 20 -134 16 -222 -9 -190 -13 -199 -137 -328 -59 -62
-120 -119 -134 -126 -35 -19 -33 -29 4 -23 21 3 59 32 125 94 l95 90 -24 -64
c-14 -36 -39 -96 -56 -135 l-31 -70 -84 1 c-70 1 -88 -2 -112 -20 -44 -33 -65
-79 -70 -152 -8 -120 53 -193 174 -208 96 -12 261 39 339 104 l39 32 -60 -26
c-89 -39 -183 -69 -192 -61 -21 22 43 231 77 252 18 11 120 -57 154 -102 36
-49 55 -57 29 -12 -36 62 -186 169 -237 169 -29 0 -25 19 18 113 25 53 56 133
71 179 14 46 32 92 39 103 10 15 13 62 11 185 -3 153 -6 174 -38 291 -83 295
-95 540 -37 764 24 97 92 240 148 314 23 30 39 57 37 59 -16 17 -113 -119
-164 -230 -66 -140 -85 -244 -85 -443 1 -166 12 -239 49 -329 8 -17 7 -17 -25
-1 -18 9 -42 14 -54 11 -17 -4 -28 2 -45 24 -25 35 -39 38 -49 10 -7 -19 -9
-18 -25 10 -10 16 -26 30 -36 30 -12 0 -21 11 -27 33 -7 21 -17 33 -31 35 -17
3 -25 18 -43 85 -29 108 -37 127 -54 127 -18 0 -33 44 -42 120 -7 62 -22 77
-44 43 -9 -14 -10 6 -5 80 5 83 3 97 -10 97 -18 0 -18 2 -4 92 12 76 4 101
-24 74 -35 -36 -36 -10 -2 63 28 59 22 81 -15 61 -19 -10 -22 -10 -18 1 7 19
84 202 108 259 11 25 22 63 26 85 3 22 21 114 40 205 19 91 35 180 36 197 2
31 7 35 68 58 148 56 293 142 382 226 29 27 57 49 64 49 6 0 17 6 23 14 6 7
25 16 41 20 34 6 48 31 33 55 -8 13 -4 20 18 33 55 34 23 68 -62 68 -52 0 -48
-24 4 -28 49 -4 47 -17 -5 -34 -48 -16 -56 -39 -18 -48 22 -5 23 -7 7 -13 -10
-4 -29 -7 -42 -7 -14 0 -29 -9 -35 -20 -6 -11 -18 -20 -28 -20 -15 0 -15 -2
-2 -10 18 -12 6 -23 -116 -105 -178 -120 -490 -232 -724 -260 -61 -7 -195 7
-286 30 -157 41 -275 131 -338 258 -62 129 -102 340 -95 513 l4 86 78 74 c94
88 233 182 401 270 102 53 326 154 342 154 3 0 -7 -20 -21 -43 -24 -42 -33
-87 -17 -87 4 0 19 23 35 51 31 56 57 70 105 57 19 -5 36 -7 40 -4 9 10 -29
45 -52 48 -23 4 85 40 244 83 52 14 96 25 97 25 1 0 5 -25 8 -55 4 -30 11 -58
16 -61 19 -11 8 100 -21 213 -50 192 -34 233 94 241 122 8 244 -50 301 -142
26 -42 30 -59 30 -117 0 -59 -4 -72 -31 -111 -17 -23 -51 -58 -75 -77 -24 -19
-36 -31 -26 -28 10 4 22 7 27 7 5 0 30 16 55 36 26 19 48 34 49 32 1 -2 19
-41 40 -87 50 -112 102 -272 110 -343 8 -59 19 -78 32 -56 23 37 -21 203 -97
371 -28 62 -58 119 -66 129 -9 10 -11 18 -4 22 18 12 33 87 26 137 -9 62 -59
145 -112 185 -86 66 -224 96 -316 70z m-184 -139 c64 -27 96 -64 118 -138 12
-39 18 -73 14 -77 -6 -6 -149 -31 -186 -32 -21 0 -119 167 -119 203 0 41 25
57 86 57 30 0 69 -6 87 -13z m-188 -4187 c3 -5 19 -10 35 -10 55 0 59 -6 34
-56 -32 -64 -39 -122 -20 -167 14 -35 14 -37 -3 -37 -40 0 -125 21 -133 33
-11 17 -10 126 2 166 16 57 67 99 85 71z m280 -327 c-31 -59 -49 -152 -40
-205 9 -50 -9 -49 -37 2 -22 42 -24 126 -4 174 15 37 60 76 87 76 17 0 16 -4
-6 -47z m131 32 c-6 -17 5 -20 20 -5 6 6 22 6 45 -2 l36 -11 -36 -36 c-57 -57
-73 -137 -46 -227 6 -18 2 -22 -32 -27 -62 -9 -117 4 -121 30 -5 35 27 203 48
250 17 39 22 43 56 43 28 0 35 -3 30 -15z"/>
<path d="M1003 4431 c-79 -48 -150 -215 -141 -328 10 -112 113 -181 193 -129
111 73 146 357 55 448 -33 33 -63 35 -107 9z m68 -21 c50 -27 71 -143 45 -252
-25 -105 -71 -168 -125 -168 -30 0 -25 13 12 30 62 29 101 142 77 229 -13 50
-58 101 -90 101 -27 0 -15 23 26 51 34 22 30 22 55 9z"/>
<path d="M2039 3998 c51 -96 58 -118 33 -111 -31 8 -34 -13 -9 -44 29 -34 42
-59 51 -95 5 -23 3 -28 -13 -28 -18 0 -19 -5 -14 -50 4 -37 2 -55 -9 -68 -13
-14 -16 -53 -17 -214 0 -185 -26 -489 -50 -608 -6 -25 -13 -63 -16 -85 -4 -22
-9 -51 -12 -64 -4 -17 -2 -22 8 -19 8 3 21 31 29 63 l15 59 105 38 c297 108
624 175 945 193 61 4 139 12 175 20 36 7 114 17 173 20 94 7 110 5 120 -9 8
-11 45 -21 117 -32 58 -9 107 -17 109 -20 2 -2 -26 -4 -63 -4 -52 0 -68 -4
-73 -16 -8 -22 9 -30 75 -38 30 -4 76 -12 100 -18 39 -10 43 -12 24 -19 -22
-8 -31 -39 -12 -39 20 0 120 -42 120 -51 0 -5 -6 -9 -14 -9 -7 0 15 -30 50
-66 72 -74 142 -203 171 -314 24 -90 24 -301 0 -390 -32 -119 -84 -207 -179
-304 -61 -63 -84 -94 -79 -104 6 -11 16 -7 45 18 l36 32 38 -24 c151 -101 224
-298 192 -513 -30 -203 -128 -381 -373 -684 l-125 -153 -87 -39 c-199 -89
-320 -103 -378 -44 -21 21 -22 95 -3 134 8 15 54 63 102 107 135 122 234 268
294 432 30 83 55 230 46 268 -5 19 2 27 47 52 95 54 109 76 22 34 -170 -82
-281 -114 -400 -115 -230 -2 -345 128 -345 389 0 243 86 470 254 667 72 85 51
87 -29 4 -152 -159 -248 -376 -262 -590 -5 -85 -8 -95 -20 -78 -7 11 -30 25
-50 32 -52 17 -215 5 -289 -21 -32 -11 -59 -20 -60 -20 -2 0 -1 51 2 113 5
141 -6 112 -42 -118 -23 -142 -27 -200 -26 -350 0 -99 -3 -166 -6 -150 -11 48
-37 38 -40 -15 -1 -25 -5 -60 -8 -79 -5 -30 -7 -31 -18 -16 -21 29 -32 11 -45
-70 -9 -52 -17 -75 -27 -75 -7 0 -16 -12 -19 -28 -8 -38 -28 -76 -40 -75 -5 1
-14 15 -19 32 -11 37 -21 39 -37 9 -43 -82 -222 -283 -328 -371 -35 -29 -41
-38 -27 -43 34 -13 212 154 319 299 48 64 50 67 64 47 21 -30 37 -25 80 28 41
48 63 97 63 138 0 16 7 24 23 26 16 2 26 15 37 45 8 24 20 43 27 43 34 0 50
136 34 279 -11 87 -10 116 4 199 9 53 20 100 23 103 10 8 140 37 200 45 52 6
52 6 52 -23 0 -35 30 -101 67 -150 31 -40 107 -93 135 -93 10 0 25 -11 34 -25
15 -23 15 -27 -14 -72 -16 -27 -57 -86 -91 -133 -123 -170 -149 -259 -88 -304
24 -18 43 -21 124 -21 72 0 97 4 106 15 7 8 35 26 62 40 101 51 225 201 240
292 6 33 10 38 33 38 34 0 145 31 205 58 l47 21 0 -40 c0 -188 -149 -473 -340
-650 -104 -97 -130 -138 -130 -205 0 -81 64 -134 162 -134 64 0 106 11 223 58
146 58 139 51 363 321 144 173 253 366 293 518 65 249 -12 514 -181 624 l-50
33 29 30 c79 85 151 230 172 350 11 68 8 287 -6 333 -6 20 -4 21 52 20 73 -1
121 22 129 62 5 22 13 30 36 35 41 8 95 67 109 118 9 34 8 49 -5 82 -16 39
-15 41 8 65 68 71 52 161 -27 161 -24 0 -25 1 -15 43 21 90 -17 318 -54 325
-16 3 -288 -259 -416 -401 -42 -47 -65 -65 -76 -61 -13 5 -14 9 -5 20 19 23 3
41 -53 60 -46 15 -50 19 -29 24 14 3 26 10 28 16 7 20 -28 38 -105 54 l-77 17
42 7 c52 9 75 32 45 43 -29 11 -278 -3 -420 -22 -64 -9 -184 -21 -265 -26
-350 -21 -675 -87 -962 -194 -49 -19 -90 -33 -91 -32 -1 1 4 36 12 77 28 165
44 353 44 535 1 151 4 194 15 209 8 11 15 32 15 47 0 15 5 31 10 34 14 8 13
81 -1 107 -6 12 -13 44 -14 72 -3 72 -77 216 -111 216 -10 0 -4 -20 25 -72z
m2401 -854 c12 -64 9 -203 -6 -268 -7 -28 -6 -29 22 -21 57 16 69 12 72 -20 2
-23 -7 -43 -34 -79 -36 -48 -36 -49 -20 -76 9 -16 16 -41 16 -57 0 -62 -74
-132 -126 -119 -30 8 -43 -16 -23 -40 11 -14 10 -19 -10 -35 -17 -14 -39 -19
-85 -19 l-61 0 -19 53 c-24 69 -70 148 -123 213 -26 33 -40 59 -37 69 4 8 1
22 -6 30 -10 13 1 29 66 102 164 181 338 348 353 339 5 -3 14 -36 21 -72z
m-1505 -1693 c27 -15 31 -24 37 -81 4 -35 12 -77 18 -93 5 -17 9 -32 7 -34 -8
-8 -89 61 -118 100 -31 42 -44 68 -55 112 -6 22 -4 23 38 18 23 -3 57 -13 73
-22z m176 -350 c46 -34 110 -57 187 -66 52 -7 53 -8 47 -34 -24 -96 -148 -228
-271 -287 -68 -32 -82 -36 -131 -31 -61 6 -103 29 -103 55 0 32 47 119 134
246 47 69 86 131 86 136 0 15 7 13 51 -19z"/>
</g>
</svg>
