<?xml version="1.0" standalone="no"?>
<!DOCTYPE svg PUBLIC "-//W3C//DTD SVG 20010904//EN"
 "http://www.w3.org/TR/2001/REC-SVG-20010904/DTD/svg10.dtd">
<svg version="1.0" xmlns="http://www.w3.org/2000/svg"
 width="470.000000pt" height="510.000000pt" viewBox="0 0 470.000000 510.000000"
 preserveAspectRatio="xMidYMid meet">
<metadata>
Created by potrace 1.14, written by Peter Selinger 2001-2017
</metadata>
<g transform="translate(0.000000,510.000000) scale(0.100000,-0.100000)"
fill="#000000" stroke="none">
<path d="M1425 5045 c-27 -8 -60 -19 -72 -26 -28 -15 -55 -79 -41 -96 23 -28
-5 -28 -62 0 -99 49 -191 38 -222 -26 -18 -38 -15 -48 58 -167 l52 -86 -102
-33 c-318 -103 -624 -264 -836 -440 -106 -88 -114 -110 -113 -286 1 -296 88
-523 237 -623 70 -48 116 -65 241 -93 186 -40 207 -42 341 -19 68 12 160 32
204 44 100 29 108 23 85 -58 -21 -71 -85 -369 -81 -373 10 -11 192 -24 252
-18 210 17 433 129 626 314 l96 91 7 217 c4 119 11 224 16 233 4 8 15 40 23
71 16 57 11 104 -14 134 -8 9 -8 20 -1 32 17 34 -39 164 -106 244 -16 18 -28
42 -29 53 -5 95 -60 266 -135 420 -30 62 -45 103 -40 110 5 6 14 29 20 51 23
87 -39 217 -131 272 -43 26 -193 76 -217 72 -3 0 -28 -7 -56 -14z"/>
<path d="M3730 2385 c-172 -39 -304 -96 -421 -182 -45 -32 -59 -49 -59 -68 0
-14 -4 -25 -9 -25 -17 0 -120 -168 -159 -260 -54 -126 -76 -237 -76 -380 0
-241 78 -354 272 -395 54 -11 84 -12 115 -5 55 13 57 12 57 -5 0 -8 2 -15 4
-15 14 0 165 54 183 66 21 13 22 12 28 -19 8 -42 -25 -184 -65 -281 -63 -150
-183 -316 -296 -407 -127 -104 -147 -247 -41 -295 81 -37 197 -16 372 66 93
44 100 50 220 194 254 304 348 473 385 696 16 95 17 113 4 188 -34 192 -95
288 -243 379 -2 1 24 38 56 81 62 83 114 192 135 284 6 29 12 102 12 162 l1
108 -45 39 c-79 69 -120 83 -250 86 -74 1 -138 -3 -180 -12z"/>
<path d="M1034 1926 c8 -116 38 -251 86 -389 52 -150 76 -317 60 -425 -17
-124 -40 -212 -75 -289 l-33 -71 -78 -7 c-143 -13 -187 -48 -188 -146 0 -60
29 -100 97 -133 109 -54 211 -54 351 -2 45 17 61 28 61 42 0 11 13 26 30 36
17 9 70 51 119 95 49 43 92 77 96 76 4 -1 14 17 22 40 54 155 53 147 51 287
-1 77 -9 167 -18 210 -9 41 -19 87 -22 102 -10 52 -43 75 -119 83 -78 8 -95
15 -139 59 -17 17 -47 45 -66 63 -27 24 -40 51 -63 125 -16 51 -40 106 -52
121 -13 15 -28 46 -34 68 -6 21 -24 53 -40 69 -17 17 -30 37 -30 45 0 7 -5 17
-12 21 -8 5 -9 -15 -4 -80z"/>
</g>
</svg>
