<?xml version="1.0" standalone="no"?>
<!DOCTYPE svg PUBLIC "-//W3C//DTD SVG 20010904//EN"
 "http://www.w3.org/TR/2001/REC-SVG-20010904/DTD/svg10.dtd">
<svg version="1.0" xmlns="http://www.w3.org/2000/svg"
 width="470.000000pt" height="510.000000pt" viewBox="0 0 470.000000 510.000000"
 preserveAspectRatio="xMidYMid meet">
<metadata>
Created by potrace 1.14, written by Peter Selinger 2001-2017
</metadata>
<g transform="translate(0.000000,510.000000) scale(0.100000,-0.100000)"
fill="#000000" stroke="none">
<path d="M3550 3039 c-58 -4 -159 -15 -225 -23 -66 -9 -185 -20 -264 -26 -80
-5 -147 -14 -150 -19 -3 -5 -28 -12 -56 -16 -239 -34 -555 -107 -555 -129 0
-3 18 -10 39 -16 153 -41 369 -351 427 -612 11 -49 17 -122 17 -223 1 -149
-13 -246 -57 -415 -16 -62 -9 -74 36 -64 26 5 28 3 48 -66 17 -56 26 -73 46
-80 13 -5 27 -16 30 -24 11 -29 116 -106 144 -106 21 0 34 -9 54 -40 14 -22
31 -40 36 -40 6 0 10 -11 10 -24 0 -34 12 -39 96 -38 86 2 135 17 264 80 81
39 109 60 185 136 50 50 137 155 195 233 58 79 112 145 120 148 8 3 33 30 55
62 22 31 54 73 71 92 43 49 72 133 85 246 11 92 5 205 -10 205 -4 0 -15 36
-26 81 -22 97 -66 193 -127 274 -25 33 -49 71 -53 85 -4 14 -21 41 -36 61 -16
20 -29 43 -29 51 0 19 -26 41 -68 58 l-34 13 27 11 c43 18 12 43 -74 61 -41 9
-76 17 -78 19 -2 2 19 9 46 16 28 7 51 16 51 20 0 21 -52 23 -240 9z"/>
<path d="M1165 2696 c-16 -7 -43 -18 -60 -26 -25 -11 -40 -34 -93 -152 -62
-138 -69 -168 -33 -148 28 15 31 2 11 -46 -23 -53 -17 -78 15 -70 31 8 38 -13
24 -72 -17 -73 -12 -149 12 -188 22 -37 53 -59 69 -49 6 3 10 -4 10 -16 0 -40
34 -130 57 -154 13 -12 34 -54 47 -91 33 -98 57 -143 78 -149 9 -4 31 -22 47
-42 30 -36 38 -39 154 -50 31 -2 57 -9 57 -14 0 -5 4 -9 10 -9 11 0 1 102 -11
110 -4 3 -15 55 -24 115 -18 118 -15 201 12 355 17 103 18 72 -1 270 -24 252
-52 327 -152 395 -52 36 -64 40 -128 42 -42 2 -83 -3 -101 -11z"/>
</g>
</svg>
